<?xml version="1.0" encoding="UTF-8" standalone="no"?>
<svg
   xmlns:osb="http://www.openswatchbook.org/uri/2009/osb"
   xmlns:dc="http://purl.org/dc/elements/1.1/"
   xmlns:cc="http://creativecommons.org/ns#"
   xmlns:rdf="http://www.w3.org/1999/02/22-rdf-syntax-ns#"
   xmlns:svg="http://www.w3.org/2000/svg"
   xmlns="http://www.w3.org/2000/svg"
   xmlns:sodipodi="http://sodipodi.sourceforge.net/DTD/sodipodi-0.dtd"
   xmlns:inkscape="http://www.inkscape.org/namespaces/inkscape"
   width="51mm"
   height="51mm"
   viewBox="0 0 51 51"
   version="1.1"
   id="svg8"
   inkscape:version="1.0 (4035a4fb49, 2020-05-01)"
   sodipodi:docname="favicon.svg"
   inkscape:export-filename="C:\Users\henhe\Documents\GitRep\controlflow\public\images\WiDAQLogoFirstDraft.png"
   inkscape:export-xdpi="96"
   inkscape:export-ydpi="96">
  <defs
     id="defs2">
    <linearGradient
       osb:paint="gradient"
       id="linearGradient903">
      <stop
         id="stop899"
         offset="0"
         style="stop-color:#ff0000;stop-opacity:1;" />
      <stop
         id="stop901"
         offset="1"
         style="stop-color:#ff0000;stop-opacity:0;" />
    </linearGradient>
  </defs>
  <sodipodi:namedview
     showguides="false"
     inkscape:snap-center="true"
     inkscape:snap-midpoints="true"
     inkscape:snap-smooth-nodes="true"
     inkscape:snap-object-midpoints="true"
     inkscape:pagecheckerboard="true"
     id="base"
     pagecolor="#ffffff"
     bordercolor="#666666"
     borderopacity="1.0"
     inkscape:pageopacity="0"
     inkscape:pageshadow="2"
     inkscape:zoom="3.9999998"
     inkscape:cx="114.96309"
     inkscape:cy="68.778316"
     inkscape:document-units="mm"
     inkscape:current-layer="layer1"
     inkscape:document-rotation="0"
     showgrid="false"
     inkscape:window-width="3440"
     inkscape:window-height="1377"
     inkscape:window-x="-8"
     inkscape:window-y="-8"
     inkscape:window-maximized="1">
    <sodipodi:guide
       id="guide1129"
       orientation="0,-1"
       position="25.116654,38.772997" />
  </sodipodi:namedview>
  <metadata
     id="metadata5">
    <rdf:RDF>
      <cc:Work
         rdf:about="">
        <dc:format>image/svg+xml</dc:format>
        <dc:type
           rdf:resource="http://purl.org/dc/dcmitype/StillImage" />
        <dc:title></dc:title>
      </cc:Work>
    </rdf:RDF>
  </metadata>
  <g
     inkscape:label="Layer 1"
     inkscape:groupmode="layer"
     id="layer1">
    <path
       d="m 26.057194,14.855686 a 17.918753,17.918753 0 0 0 -1.146185,0.03669 v 0.450101 H 21.909125 A 17.918753,17.918753 0 0 0 8.1383898,32.774489 17.918753,17.918753 0 0 0 26.057194,50.693292 17.918753,17.918753 0 0 0 43.975997,32.774489 17.918753,17.918753 0 0 0 26.057194,14.855686 Z m -4.38268,2.62413 h 3.253031 v 0.420648 a 14.916651,14.916651 0 0 1 1.129649,-0.04289 14.916651,14.916651 0 0 1 14.916401,14.916917 14.916651,14.916651 0 0 1 -14.916401,14.916404 14.916651,14.916651 0 0 1 -0.04341,0 14.916651,14.916651 0 0 1 -14.87351,-14.916406 14.916651,14.916651 0 0 1 10.53424,-14.258559 z"
       style="fill:#000000;fill-opacity:1;stroke:none;stroke-width:0.162495;stroke-miterlimit:4;stroke-dasharray:none;stroke-opacity:1;paint-order:stroke fill markers"
       id="path1030" />
    <path
       d="m 26.003449,20.858939 a 11.915382,11.915382 0 0 0 -2.577102,0.294037 h 1.501717 v 1.700673 H 21.675033 V 21.69403 a 11.915382,11.915382 0 0 0 -7.533392,11.080459 11.915382,11.915382 0 0 0 11.861808,11.915037 11.915382,11.915382 0 0 0 0.05374,0 11.915382,11.915382 0 0 0 11.915039,-11.915037 11.915382,11.915382 0 0 0 -11.915034,-11.91555 11.915382,11.915382 0 0 0 -0.05374,0 z m 0.02016,3.063894 a 8.844672,8.8575808 44.966913 0 1 8.883178,8.67079 8.844672,8.8575808 44.966913 0 1 -8.682156,9.029938 8.844672,8.8575808 44.966913 0 1 -0.133842,0.0021 8.844672,8.8575808 44.966913 0 1 -8.883179,-8.67079 8.844672,8.8575808 44.966913 0 1 8.68164,-9.029938 8.844672,8.8575808 44.966913 0 1 0.134359,-0.0021 z"
       style="fill:#000000;fill-opacity:1;stroke:none;stroke-width:0.169235;stroke-miterlimit:4;stroke-dasharray:none;stroke-opacity:1;paint-order:stroke fill markers"
       id="path1022" />
    <g
       transform="matrix(1,0,0,-1,-8.4073692,67.004844)"
       id="g967">
      <path
         transform="matrix(0.26458333,0,0,-0.26458333,0,83.296092)"
         d="m 113.69531,73.310547 v 11.794922 h 12.23438 v 6.427734 h -12.23438 v 7.492188 h 12.23242 v 6.427729 h -12.23242 v 7.67969 h 12.23242 v 6.42774 h -12.23242 v 8.07812 h 12.29492 v 6.42774 h -12.29492 v 36.20898 h 33.39258 V 73.310547 Z m 0,46.250003 v -6.42774 h -0.002 v 6.42774 z m 0,-14.10743 v -6.427729 h -0.002 v 6.427729 z m 0.002,36.06836 h 12.29492 v 6.42774 h -12.29492 z"
         style="fill:#000000;stroke:none;stroke-width:0.999999"
         id="rect904" />
      <path
         d="m 20.81361,49.311234 a 5.7128859,5.5458426 0 0 1 -9.81e-4,0.102762"
         sodipodi:cx="15.100724"
         sodipodi:cy="49.311234"
         sodipodi:rx="5.7128859"
         sodipodi:ry="5.5458426"
         sodipodi:end="0.018530684"
         sodipodi:start="0"
         sodipodi:open="true"
         sodipodi:arc-type="arc"
         sodipodi:type="arc"
         id="path918"
         style="fill:#000000;stroke-width:0.264583" />
      <ellipse
         ry="3.1237125"
         rx="4.4266515"
         cy="63.860714"
         cx="34.494473"
         id="path924"
         style="fill:#000000;stroke-width:0.264583" />
    </g>
    <circle
       transform="scale(1,-1)"
       cy="-32.774277"
       cx="26.057056"
       id="path993"
       style="fill:#000000;fill-opacity:1;stroke:none;stroke-width:0.201804;stroke-miterlimit:4;stroke-dasharray:none;stroke-opacity:1;paint-order:stroke fill markers"
       r="6" />
  </g>
</svg>
